<svg xmlns="http://www.w3.org/2000/svg" width="483.36" height="141.656" viewBox="0 0 483.36 141.656"><defs><style>.a{fill:#e91e63;}</style></defs><g transform="translate(-0.001 -0.001)"><path class="a" d="M604.936,121.93a10.651,10.651,0,0,0-1.9-6.878c-1.419-2.149-2.128-4.47-1.059-7.029l.169-.582a6.07,6.07,0,0,0-1.364-6.205,4.786,4.786,0,0,1-1.256-4.615,8.01,8.01,0,0,0-1.059-6.519,5.768,5.768,0,0,1-.455-5.9,36.7,36.7,0,0,0,1.849-5.608,7.188,7.188,0,0,0-.157-4.485,5.38,5.38,0,0,1-.054-3.4,34.344,34.344,0,0,0,.628-3.724,2.741,2.741,0,0,0-.909-2.466,3.453,3.453,0,0,1-1.111-3.16c.188-1.4.459-2.792-.274-4.144a1.788,1.788,0,0,1-.033-.9,14.511,14.511,0,0,0-1.392-6.918,7.911,7.911,0,0,1-.637-4,28.8,28.8,0,0,0-.359-8.007c-.5-2.834-1.3-5.611-1.9-8.43a11.224,11.224,0,0,1-.283-2.988c.123-2.013.365-4.023.634-6.027a23.871,23.871,0,0,1,1.959-6.984c1-2.155,1.926-4.346,2.852-6.534a15.914,15.914,0,0,0,.815-2.442,3.558,3.558,0,0,0-.377-2.924c-.806-1.21-1.868-1.437-2.925-.422a12.492,12.492,0,0,0-2.252,2.834,29.992,29.992,0,0,1-4.011,5.689,6.52,6.52,0,0,0-1.63,4.3c-.124,3.2-.855,6.2-3.175,8.626a16.763,16.763,0,0,0-1.774,2.266,10.966,10.966,0,0,0-1.407,2.5,40.673,40.673,0,0,0-1.889,6.389c-.492,2.9-1.253,5.708-2.022,8.539a13.332,13.332,0,0,1-3.38,5.979,9.536,9.536,0,0,0-2.23,3.754c-.547,1.684-1.023,3.386-1.479,5.1A14.814,14.814,0,0,0,570.67,59c-.35,3.827-.628,7.66-1.017,11.478a4.961,4.961,0,0,1-.64,2.731l-.268-.235a8.782,8.782,0,0,1-1.277-4.606,86.371,86.371,0,0,1-.592-11.481c.045-1.162,0-2.327.036-3.489a2.586,2.586,0,0,0-1.087-2.224c-.274-.214-.558-.413-.875-.649.058-.715.115-1.419.17-2.119a6.519,6.519,0,0,0-1.208-4.729,3.353,3.353,0,0,1-.561-1.974c.014-1.714.174-3.431.311-5.143a4.317,4.317,0,0,0-1.395-3.546,4.657,4.657,0,0,1-.764-.73c-.283-.447-.694-.963-.667-1.427a34.775,34.775,0,0,1,.555-4.95c.253-1.28.836-2.49,1.2-3.752.658-2.282,1.346-4.554,1.865-6.869a2.052,2.052,0,0,0-1.319-2.459,1.814,1.814,0,0,0-2.514.709,63.635,63.635,0,0,0-3.658,5.559,10.153,10.153,0,0,0-.915,2.864,8.74,8.74,0,0,1-1.983,4.518,10.271,10.271,0,0,0-2.52,4.775,9.025,9.025,0,0,1-.4,1c-.827-2.131-1.165-2.339-2.958-1.911a5.1,5.1,0,0,0-.2-.863c-.5-1.2-1.445-1.391-2.339-.429a4.255,4.255,0,0,0-.939,1.361c-.691,1.9-1.388,3.8-1.929,5.74s-.809,3.966-1.331,5.915c-1.153,4.292-2,8.674-3.851,12.761a7.008,7.008,0,0,0-.413,1.609,22.267,22.267,0,0,0,.163,8.741,28.477,28.477,0,0,1,.127,10.413,11.486,11.486,0,0,1-3.084,5.647,11.978,11.978,0,0,0-2.955,9.114,14.821,14.821,0,0,0,1.171,4.833,10.542,10.542,0,0,1,.547,8.245,6.363,6.363,0,0,0-.368,1.47,6.5,6.5,0,0,0,.362,3.716,5.829,5.829,0,0,1,.474,2.333c.021,3.088-.051,6.173-.057,9.26a6.023,6.023,0,0,0,.248,1.636,2.014,2.014,0,0,0,1.473,1.584c.886.205,1.43-.374,1.889-1a7.6,7.6,0,0,0,1.539-3.749,24.33,24.33,0,0,1,2.052-7.1,10.594,10.594,0,0,0,.7-3.383,24.2,24.2,0,0,0-.812-6.6,4.421,4.421,0,0,1-.106-1.645,11.484,11.484,0,0,1,3.432-6.778A5.617,5.617,0,0,0,546,87.917c-.064-.5-.025-1.023-.13-1.515a10.127,10.127,0,0,1,.205-4.5,45.786,45.786,0,0,0,1.162-6.25,66.943,66.943,0,0,1,1.705-10.3,11.9,11.9,0,0,0-.257-7.017,10.054,10.054,0,0,1,.045-6.848c.392-1.144.609-2.345.987-3.5a9.362,9.362,0,0,1,1.89-3.921,11.286,11.286,0,0,1,.208,1.669c-.082,1.515-.188,3.027-.338,4.531-.19,1.953.227,3.628,1.959,4.772a2.975,2.975,0,0,1,1.313,2.125,2.721,2.721,0,0,0,1.373,2.095c1.823.842,2.128,2.408,2.3,4.108l.045.452a23.324,23.324,0,0,0,2.393,8.713,13.76,13.76,0,0,1,.957,3.785,14.828,14.828,0,0,0,.426,2.527,9.2,9.2,0,0,1,.365,4.623c-.329,3.354.576,5.291,3.546,5.88a1.384,1.384,0,0,1,1.214,1.349c.075.752.174,1.5.272,2.254a11.342,11.342,0,0,0,1.784,5.565,2.656,2.656,0,0,0,2.883,1.229,2.851,2.851,0,0,0,2-2.577,23.2,23.2,0,0,0,.136-3.486,15.805,15.805,0,0,1,2.243-8.7,7.531,7.531,0,0,0,.887-2.545,46.056,46.056,0,0,0,.341-4.835c.087-2.915.613-5.64,2.958-7.678l.3-.338c2.107-2.885,3.3-6,2.559-9.649a17.532,17.532,0,0,1,.667-8.227c.145-.528.362-1.038.55-1.557a4.234,4.234,0,0,1,.256,1.732,4.736,4.736,0,0,0,2,4.2,5.559,5.559,0,0,1,.978.95,3.046,3.046,0,0,1,.8,2.94c-.3,1.071-.594,2.14-.921,3.205a42.96,42.96,0,0,0-1.865,6.226,17.175,17.175,0,0,0,.887,8.97,6.33,6.33,0,0,1,.519,1.88,37.661,37.661,0,0,1,.027,4.4,17.755,17.755,0,0,0,4.2,13.081,3.341,3.341,0,0,1,.592,3.248,31.989,31.989,0,0,0-.833,5.2,3.7,3.7,0,0,0,2.5,4.068l.26.272c0,.954.009,1.964-.006,2.972a4.192,4.192,0,0,0,1.442,3.374,18.319,18.319,0,0,0,2.517,1.941,2.065,2.065,0,0,1,1.065,2.288c-.127.951-.174,1.91-.238,2.87a1.824,1.824,0,0,0,.93,1.922c.721.377,1.249-.06,1.789-.45l.292-.018.193.212c.884.89,1.454,1.041,2.237.594s.941-1.1.657-2.233a6.73,6.73,0,0,1-.3-2.074" transform="translate(-274.538 0)"/><path class="a" d="M88.791,137.568a9.1,9.1,0,0,0-2.4-4.971,9.464,9.464,0,0,1-2.746-6.072,6.086,6.086,0,0,0-4.252-5.533,3.131,3.131,0,0,1-1.8-1.5c-.468-.894-1-1.762-1.391-2.689a3.543,3.543,0,0,0-2.52-2.222,2.789,2.789,0,0,1-2.251-2.339c-.112-.444-.262-.878-.329-1.328a8.865,8.865,0,0,0-4.527-6.492,3.922,3.922,0,0,1-1.563-1.938,22.074,22.074,0,0,0-2.578-4.775c-1.6-1.959-3.613-3.468-6.456-2.345l-.359-.1c-.344-.721-.655-1.524-1.089-2.255-1.062-1.772-1.757-1.928-3.537-.9l-.244.015c-.154-.32-.32-.673-.495-1.026-.61-1.219-1.156-2.478-1.85-3.649-.622-1.051-1.373-2-2.843-1.935-.374.018-.764-.332-1.424-.642A15.367,15.367,0,0,1,45.7,83.8a5.567,5.567,0,0,0,2.931-3.13,1.831,1.831,0,0,1,1.262-1.2,10.982,10.982,0,0,1,2.212-.483,5.606,5.606,0,0,0,4.334-2.964,14.6,14.6,0,0,0,2.071-5.342,3.041,3.041,0,0,1,1.361-2.508,2.93,2.93,0,0,0,.966-1.648,8.528,8.528,0,0,0,.3-2.394,4.733,4.733,0,0,1,1.328-3.576,7.408,7.408,0,0,0,1.914-6.737,11.509,11.509,0,0,1,.2-6.124,5.1,5.1,0,0,0-1.751-6.235,1.794,1.794,0,0,1-.764-1.823A13.64,13.64,0,0,0,62.2,38.28c.073-1.56.163-3.121.172-4.684a2.264,2.264,0,0,0-.407-1.277c-1.808-2.4-3.26-3.133-5.81-2.242a9.172,9.172,0,0,1-1.6.471c-.878.145-1.189-.139-1.283-1.023a19.085,19.085,0,0,0-.208-1.956A2.316,2.316,0,0,0,50.646,25.5a6.141,6.141,0,0,0-1.509.094,4.51,4.51,0,0,1-4.071-1.005,15.474,15.474,0,0,0-2.973-1.8c-1.79-.936-3.634-1.769-5.412-2.726a7.7,7.7,0,0,0-3.471-.957,13.45,13.45,0,0,1-1.817-.045A6.123,6.123,0,0,0,26.344,20.6c-1.675,1.307-3.38,2.58-5.131,3.785-2.3,1.584-4.79,2.378-7.594,1.482l-.592-.121a4.276,4.276,0,0,0-3.217.425,12.727,12.727,0,0,0-4.289,3.317,1.878,1.878,0,0,1-2.505.64c-.966-.438-1.524-.257-1.983.5C-.065,32.44-.774,35.437,1.5,37.6c.368.347.737.695,1.126,1.017a4.088,4.088,0,0,1,1.21,4.8A21.137,21.137,0,0,0,3.155,45.9c-.613,3.456-.344,6.667,2.6,9.133a11.185,11.185,0,0,1,1.633,1.8,4.372,4.372,0,0,1,1.144,3.915c-.3,1.171-.432,2.384-.727,3.552a3.219,3.219,0,0,0,.332,2.759,1.883,1.883,0,0,1,.32,1.126,4.78,4.78,0,0,0,.513,2.641,3.706,3.706,0,0,1,.19,2.783,4.735,4.735,0,0,0,.857,4.572c.489.582.93,1.2,1.418,1.781a2.968,2.968,0,0,1,.745,2.937,5.208,5.208,0,0,0,.407,3.818,20.148,20.148,0,0,1,2.083,8.481c0,1.682.163,3.441-.845,5a2.9,2.9,0,0,0,.5,3.639,14.086,14.086,0,0,1,2.375,4.7,2.273,2.273,0,0,1-.226,2.155,8.437,8.437,0,0,0-.863,6.715,14.19,14.19,0,0,0,2.034,4.542,8.166,8.166,0,0,1,1.313,3.2,3.817,3.817,0,0,0,1.328,2.478,1.454,1.454,0,0,1,.516.87c.163,1.647.555,3.272.082,4.962-.483,1.717-.085,2.629,1.482,3.561a2.968,2.968,0,0,1,1.5,2.623c.045.857-.012,1.724.03,2.581a5.182,5.182,0,0,0,1.754,3.9c.546.459,1.135.93,1.907.6a1.869,1.869,0,0,0,1.123-1.835c.021-.957-.024-1.923-.087-2.879-.109-1.669-.048-3.253,1.666-4.2l.223-.2c1.8-1.783,1.986-3.655.737-5.87a5.553,5.553,0,0,1-.516-5.215,7.2,7.2,0,0,0,.649-2.327A4.737,4.737,0,0,0,31,121.861a36.821,36.821,0,0,0-2.309-3.736c-1.264-1.919-1.98-3.878-.619-6.063l.187-.413a6.527,6.527,0,0,0-.054-7.044,1.752,1.752,0,0,1,0-2.116,3.518,3.518,0,0,0,.021-4A17.6,17.6,0,0,1,27.118,96c-.58-1.63-.054-2.62,1.887-3.308.77.839,1.6,1.789,2.475,2.7a4.528,4.528,0,0,0,4.706,1.355,2.283,2.283,0,0,1,2.8,1.165c.7,1.057,1.289,2.179,2,3.217a14.788,14.788,0,0,0,1.917,2.324c.757.727,1.349.631,2.106-.1,1.407-1.369,1.708-1.394,3.051,0a3.039,3.039,0,0,0,2.641,1.2,1.484,1.484,0,0,1,1.687.972c.7,1.563,1.458,3.106,2.1,4.69.809,1.992,2.146,2.62,4.075,1.8.277-.117.55-.253.833-.368,1.089-.44,1.2-.462,1.826.594.77,1.3,1.473,2.647,2.119,4.017a5.655,5.655,0,0,0,4.213,3.362,2.822,2.822,0,0,1,2.257,1.708c.245.5.54.975.785,1.473,1.135,2.3,2.421,4.452,5.073,5.306l.507.326c1.307.905,2.542,1.844,2.629,3.655a15.585,15.585,0,0,0,1.5,5.065,4.863,4.863,0,0,0,2.207,2.6,3.817,3.817,0,0,1,1.826,2.134A27.765,27.765,0,0,0,85.5,144.53c.595,1.19,1.675,1.929,2.433,1.729.788-.208,1.2-1.075,1.165-2.562-.015-.652-.35-1.376-.16-1.941.487-1.445.067-2.812-.15-4.188M42.744,73.2a3.382,3.382,0,0,1-1.084.363c-.824.193-1.684.275-2.484.54a15.05,15.05,0,0,0-2.635,1.153,6.251,6.251,0,0,0-1.72,1.415,5.9,5.9,0,0,1-2.514,1.814,13.686,13.686,0,0,0-1.117-.939c-1.787-1.2-2.867-1.292-4.295-.22a17.118,17.118,0,0,1-1.615.924,21.873,21.873,0,0,1,.344-2.164c.148-.531.45-1.017.646-1.536.6-1.594.42-2.261-1.035-3.184a1.527,1.527,0,0,1-.809-1.482c.024-1.011.009-2.025,0-3.039a3.354,3.354,0,0,0-1.995-3.284c-.936-.453-1.017-.779-.787-1.817a17.5,17.5,0,0,0,.338-1.934c.257-2.185-.836-3.706-2.441-5A1.428,1.428,0,0,1,19,53.845c.036-1.548-.48-3.1.127-4.651.383-.987-.242-1.778-.912-2.415A3.476,3.476,0,0,1,17.3,43.29c.214-1.092.715-1.422,1.811-1.271a6.8,6.8,0,0,1,.9.136c2.487.752,4.446-.193,6.178-1.9.287-.284.588-.559.869-.848a3.976,3.976,0,0,1,3.453-1.192c.857.087,1.7.292,2.556.338,1.1.06,2.209.018,3.441.018,2.414,4.385,3.45,4.91,7.168,3.558.893.9,1.9,1.721,1.243,3.314a2.078,2.078,0,0,0,.495,2.128c.718.848,1.437,1.7,2.224,2.481a19.282,19.282,0,0,0,1.8,1.431c-.392.649-.58.993-.8,1.31-.9,1.295-1.075,2.2-.1,3.317,1.346,1.536.64,3.154.561,4.769l-.19.4c-.959,1.081-1.938,2.152-2.894,3.236a7.079,7.079,0,0,0-1.449,3.761c-.127.8-.172,1.609-.3,2.409A3.435,3.435,0,0,1,42.744,73.2" transform="translate(0 -9.8)"/><path class="a" d="M898.4,95.411a2.345,2.345,0,0,0-2.052.106c-1.711.74-3.447,1.437-5.11,2.273a10.729,10.729,0,0,0-3.018,1.986c-2.532,2.674-6.178,3.645-8.894,6.009l-.272.132c-2.433.981-4.821,2.106-7.316,2.894-2.176.685-4.413,1.1-5.879,3.181a3.251,3.251,0,0,1,.162-1.388,3.6,3.6,0,0,0-.407-3.329c-.48-.772-1.026-1.506-1.5-2.281a2.531,2.531,0,0,1-.508-1.2,3.889,3.889,0,0,0-.972-2.475,3.45,3.45,0,0,1-.667-1.772c-.094-3.13-.079-6.26-.139-9.386a4.1,4.1,0,0,0-2.091-3.637,2.2,2.2,0,0,1-.969-1.089c-.839-3.058-2.68-5.8-2.819-9.076a3.492,3.492,0,0,0-.245-1.029c-1-2.6-1.953-5.206-3.036-7.762a15.545,15.545,0,0,0-1.82-2.964c-.26-.35-.9-.77-1.2-.664a1.781,1.781,0,0,0-1,1.156,11.509,11.509,0,0,0-.03,2.556c.085,2.617.19,5.24.292,7.9a2.322,2.322,0,0,0-1.953,2.783c.127,1.76.332,3.51.532,5.26.115,1,.371,1.992.4,2.994.055,1.971.021,3.948-.012,5.918a13.976,13.976,0,0,0,1.274,6.338,13.539,13.539,0,0,1,1.364,5.239c.045.957.1,1.92.067,2.877a2.562,2.562,0,0,0,1.044,2.246c.507.383,1.087.669,1.929,1.177-.658,2.387-1.265,4.835-2.013,7.243-.715,2.312-1.685,4.53-1.023,7.078.3,1.15-.161,1.621-1.307,2.016-.715.248-1.463.408-2.169.682-1.832.715-3.7,1.37-5.46,2.24-1.518.752-1.606,1.714-.532,3.039l.233.335-.175.284c-.341.211-.691.413-1.05.6a18.918,18.918,0,0,0-5.774,4.85,2.511,2.511,0,0,0-.226,3.576c1.047,1.572,1.023,2.1-.362,3.35-1.684,1.527-3.411,3.01-5.143,4.479a5.662,5.662,0,0,0-1.811,2.379,1.489,1.489,0,0,1-.724.848,7.262,7.262,0,0,0-3.876,3.667,7.983,7.983,0,0,1-3.341,3.42c-.8.413-1.678.694-2.466,1.135a46.776,46.776,0,0,0-9.293,7.512,7.621,7.621,0,0,0-1.434,2.457,2,2,0,0,0,.334,2.626,2.278,2.278,0,0,0,2.822,0l.619-.435c2.052-1.723,4.071-3.483,6.157-5.164a8.589,8.589,0,0,1,2.568-1.542,56.912,56.912,0,0,1,5.556-1.455,9.977,9.977,0,0,0,5.249-2.825c1.949-2.052,4.014-4,6.039-5.979a5.968,5.968,0,0,1,1.054-.86,6.7,6.7,0,0,0,2.816-3.293,23.268,23.268,0,0,1,4.265-6.407c.752-.885,1.584-1.708,2.284-2.635a5.669,5.669,0,0,0,1.027-1.977,8.2,8.2,0,0,1,3.664-5c2.577-1.7,5.106-3.45,7.672-5.167a7.466,7.466,0,0,0,2.553-2.937,11.538,11.538,0,0,1,1.416-2.136,11.668,11.668,0,0,1,5.925-3.746,12.918,12.918,0,0,0,8.191-7.141,4.841,4.841,0,0,1,1.947-2.049,10.047,10.047,0,0,1,1.774-.851,15.443,15.443,0,0,0,4.72-2.976,14.657,14.657,0,0,1,2.684-1.968,36.375,36.375,0,0,0,7.922-5.825c1.4-1.316,2.732-2.707,4.032-4.117.835-.9.6-1.763-.5-2.292" transform="translate(-416.035 -33.023)"/><path class="a" d="M427.013,146.353a13.994,13.994,0,0,1-1.455-6.29c.094-1.554-.039-3.121.018-4.678a20.044,20.044,0,0,1,.374-3.758c.5-2.161,1.153-4.292,1.778-6.423a2.835,2.835,0,0,0-.417-2.731,4.1,4.1,0,0,1-.706-3.727c.387-1.618.906-3.208,1.335-4.817a5.9,5.9,0,0,0,.3-1.769,2.445,2.445,0,0,0-1.431-2.33,2.315,2.315,0,0,0-2.726.782,6.576,6.576,0,0,0-1.286,1.857,29.829,29.829,0,0,0-1.132,3.761c-.612,2.49-1.168,5-1.75,7.494l-.2.57a14.063,14.063,0,0,0-1.88,6.021,3.17,3.17,0,0,1-1.759,2.439A22.283,22.283,0,0,0,411.935,136a42.506,42.506,0,0,0-3.175,3.849,18.629,18.629,0,0,1,.136-2.638c.537-2.976,1.159-5.94,1.735-8.916.287-1.485.6-2.976.785-4.476a6.033,6.033,0,0,0-.142-2.384,2.241,2.241,0,0,0-1.971-1.844A2.431,2.431,0,0,0,406.97,121a7.988,7.988,0,0,0-.462.954c-1.328,3.293-2.647,6.589-4.059,10.105-.471-2.149-1.349-3.71-3.761-3.157a12.559,12.559,0,0,1-1.34-4.289,5.771,5.771,0,0,0-1.557-2.9,1.85,1.85,0,0,0-2.113-.368,1.726,1.726,0,0,0-1.247,1.717c0,.752-.117,1.5-.172,2.257-.091,1.252-.242,2.508-.247,3.761a33.646,33.646,0,0,0,.226,3.933c.226,1.95-.966,3.23-1.986,4.781a28.5,28.5,0,0,1-1.328-2.75,15.4,15.4,0,0,1-.26-1.94c-.22-.984-.552-1.941-.776-2.925-.253-1.126-.459-2.264-.652-3.4-.093-.549-.066-1.113-.166-1.657a44.558,44.558,0,0,1-1.244-7.91,10.144,10.144,0,0,0-.341-2.535c-.248-.92-.933-1.407-1.633-1.247a3.2,3.2,0,0,0-2.279,1.37,19.084,19.084,0,0,0-1.289,2.725c-.363.993-.577,2.04-.848,3.066a1.273,1.273,0,0,1-1.385,1.123c-1.458-.066-2.191.848-2.71,2.022-.365.833-.625,1.714-1.047,2.517a7.489,7.489,0,0,0-.474,6.577,3.188,3.188,0,0,1,.094,2.363c-1.005,2.743-1.488,5.683-3.118,8.2a3.852,3.852,0,0,0-.655,1.681c-.085.981-.314,2.2.136,2.934a6.813,6.813,0,0,1,.927,4.029,3.361,3.361,0,0,0,.1.9,2.056,2.056,0,0,0,1.765,1.636c.881.042,1.424-.41,1.754-1.552a4.819,4.819,0,0,1,1.186-2.236,2.384,2.384,0,0,0,.543-2.677,1.909,1.909,0,0,1,.359-1.965,12.169,12.169,0,0,0,.972-1.351,3.5,3.5,0,0,0,.507-1.525c-.015-1.7.9-2.915,1.883-4.234a3.909,3.909,0,0,0,.812.607,3.276,3.276,0,0,1,1.968,2.49c.474,1.545.839,3.13,1.431,4.627.809,2.062,1.781,4.057,2.7,6.079l.374.473a1.576,1.576,0,0,0,1.793.437,1.925,1.925,0,0,0,1.488-1.889c.006-2.016-.063-4.035-.118-6.054-.03-1.129-.105-2.261-.166-3.565a2.094,2.094,0,0,1,1.395,2.185c-.043.45.036.917-.033,1.361-.275,1.744.86,2.7,2,3.646a1.013,1.013,0,0,0,1.4-.021c1.081-1.008,2.14-2.04,1.932-3.739a3.66,3.66,0,0,1,.039-1.346,7.308,7.308,0,0,0-.371-4.742,1.736,1.736,0,0,1,.012-1.612,11.556,11.556,0,0,1,1.953,1.829c1.06,1.594,1.995,3.272,2.919,4.95.73,1.325,1.349,2.707,2.058,4.044a1.824,1.824,0,0,0,1.8,1.168,1.844,1.844,0,0,0,1.729-1.461c.154-.564.38-1.107.6-1.744l.2.217.06.447a4.31,4.31,0,0,0,3.136,4.033,13.208,13.208,0,0,1,1.917.872A5.379,5.379,0,0,0,420.339,151c.278-.344.54-.7.932-1.21.166.767.3,1.349.411,1.932a6.8,6.8,0,0,0,2.043,3.649,2.677,2.677,0,0,0,3.474.242,2.888,2.888,0,0,0,1.421-2.813,21.436,21.436,0,0,0-1.607-6.449m-48.23-13.515c.878-2.339,1.705-4.53,2.529-6.725l.392.1a18.779,18.779,0,0,0,.045,3.45,17.375,17.375,0,0,0,1.322,3.175h-4.289Zm39.483,11.439c-.51.422-.893,1-1.376,1.464-.827.8-1.862.66-2.025-.4a10.066,10.066,0,0,1,.275-3.051,2.471,2.471,0,0,1,1.663-2.137,14.713,14.713,0,0,0,2.87-2.182c.254,2.44.652,4.594-1.407,6.305" transform="translate(-191.161 -56.65)"/><path class="a" d="M294.164,77.3a15.455,15.455,0,0,0-3.224.676,14.311,14.311,0,0,0-3.431,1.922c-3.07,2.384-6.07,4.865-9.073,7.337-.745.616-1.395,1.373-2.472,1.271a3.2,3.2,0,0,0-2.369.83c-1.1.881-2.173,1.817-3.29,2.686a7.957,7.957,0,0,1-1.663,1.032c-1,.441-2.043.782-3.081,1.168a3.823,3.823,0,0,1-.073-3.842,5.864,5.864,0,0,0,.61-1.708c.287-1.732.676-3.459-.338-5.155A4.7,4.7,0,0,1,265.5,81.6a7.757,7.757,0,0,0-.223-2.535,4.059,4.059,0,0,1,.015-3.329c.145-.432.3-.86.42-1.3a12.6,12.6,0,0,0,.292-5.855c-.437-2.185-2.318-2.867-4.1-1.512l-.936.7c-1.793-.453-2.137-.4-2.924.766a4.283,4.283,0,0,0-.688,1.808c-.1.9.036,1.817.018,2.728a56.2,56.2,0,0,1-.281,8.46,54.539,54.539,0,0,1-2.752,10.548,23.056,23.056,0,0,0-.767,3.235c-.232,1.029-.4,2.077-.71,3.082-.48,1.587-1.1,3.136-1.572,4.729a4.579,4.579,0,0,0-.1,1.8,2.305,2.305,0,0,0,1.644,1.991,1.752,1.752,0,0,0,1.983-.775c.61-.74,1.2-1.494,1.826-2.227.269-.314.589-.583.887-.872l.359.2c-.211.857-.437,1.717-.634,2.584a9.234,9.234,0,0,0-.356,1.917,12.707,12.707,0,0,1-1.621,6.67c-.525.87-.824,2.052.07,2.813a2.506,2.506,0,0,1,.682,2.738q-.837,4.7-1.717,9.392a6.588,6.588,0,0,1-.5,1.584,24.78,24.78,0,0,0-1.5,5.375c-.437,1.962.474,3.206,1.636,4.44a1.288,1.288,0,0,0,2.119.1,6.777,6.777,0,0,0,1.69-2.451,43.482,43.482,0,0,1,2.085-5.514,6.87,6.87,0,0,0,.435-1.449c.413-1.928.8-3.86,1.2-5.789.377-1.826.758-3.649,1.189-5.71,1.612.755,2.39-.3,3.229-1.3a3.145,3.145,0,0,1,.905-.513,12.667,12.667,0,0,0,.939,2.382,12.439,12.439,0,0,0,1.687,1.711l.347.494c1.274,2.357,2.683,4.682,2.87,7.44a5.373,5.373,0,0,0,2.237,3.954,7.757,7.757,0,0,1,2.719,4.608,16.059,16.059,0,0,0,3.229,6.438,5.252,5.252,0,0,1,1.08,2.755,7.344,7.344,0,0,0,.544,2.493,10,10,0,0,1,1.21,3.857,1.767,1.767,0,0,0,1.841,1.648c1.068.012,1.591-.432,1.85-1.594a6.656,6.656,0,0,0,.085-.7c1.518.024,2.269-.378,2.463-1.542a8.774,8.774,0,0,0-.187-4.79c-.3-.752-.543-1.524-.8-2.294-1.485-4.516-2.912-9.033-3.16-13.85a7.494,7.494,0,0,0-1.31-3.332,14.063,14.063,0,0,1-2.2-5.414c-.435-2.723-1.548-3.679-4.262-4.132a3.628,3.628,0,0,1-2.586-1.4c-1.458-2.067-2.958-4.1-4.43-6.154-.208-.29-.368-.607-.549-.912-.492-.815-.951-1.651-1.476-2.442a2.713,2.713,0,0,1,1.35-4.2c1.134-.432,2.276-.836,3.407-1.27a9.359,9.359,0,0,0,6.3-6.821,5.936,5.936,0,0,1,3.649-4.539c.425-.16.8-.437,1.216-.625a9.315,9.315,0,0,0,4.615-4.63,5.8,5.8,0,0,1,1.678-1.9c1.424-1.2,2.738-2.541,4.059-3.863a1.211,1.211,0,0,0,.335-1.512,1.231,1.231,0,0,0-1.38-.708" transform="translate(-129.751 -34.293)"/><path class="a" d="M778.9,155.562a2.582,2.582,0,0,0,.419-2.311,39.232,39.232,0,0,0-1.366-3.842,11.2,11.2,0,0,1-1-6.326,12.812,12.812,0,0,0-2.421-9.909,4.925,4.925,0,0,1-1.072-3.908,4.011,4.011,0,0,0-.434-2.794c-1.268-2.013-2.484-4.053-4.676-5.27a1.023,1.023,0,0,1,.015-1.835c.462-.305,1.011-.465,1.5-.737a20.063,20.063,0,0,0,2.592-1.536,7.527,7.527,0,0,1,3.253-1.527,4.972,4.972,0,0,0,1.365-.576,8.853,8.853,0,0,0,3.293-3.483,4.054,4.054,0,0,0,.567-2.614,10.743,10.743,0,0,0-.241-1.8,5.876,5.876,0,0,0-.939-2.333,26.624,26.624,0,0,1-2.453-3.613,1.766,1.766,0,0,1-.138-2.182,2.488,2.488,0,0,0-.607-3.4,4.39,4.39,0,0,0-4.174-1.244,5.529,5.529,0,0,1-3.809-.625c-1.881-.96-3.088-.866-4.47.691-1.4,1.584-2.641,3.32-3.945,4.992-.205.262-.392.54-.631.872a3.335,3.335,0,0,1-.827-2.429c-.23-1.853-.416-3.716-.788-5.538a1.767,1.767,0,0,0-1.8-1.561,2.169,2.169,0,0,0-2.064,1.7,5.851,5.851,0,0,0-.081,1.325c-.048,1.307-.018,2.62-.154,3.921-.257,2.508-.806,5-.869,7.512a42.491,42.491,0,0,1-1.057,8.1,10.545,10.545,0,0,0-.033,2.843,3.117,3.117,0,0,0,1.85,2.589,2.08,2.08,0,0,1,1.057,3.012c-.311.8-.74,1.552-1.05,2.354a4.661,4.661,0,0,0,.117,4.111,5.318,5.318,0,0,1,.374,4.361,9.828,9.828,0,0,0-.332,3.88,19.03,19.03,0,0,1,.033,4.826,7.829,7.829,0,0,0-.075,1.964,2.808,2.808,0,0,0,.625,1.464,2.383,2.383,0,0,0,4.086-.742,9.632,9.632,0,0,0,.613-3.389,12.406,12.406,0,0,1,1.108-4.98,17.111,17.111,0,0,0,.959-3.791,15.47,15.47,0,0,0,.135-2.146c.359.266.806.574,1.238.905a18.667,18.667,0,0,1,4.781,5.816,10.422,10.422,0,0,0,1.7,2.321,6.222,6.222,0,0,1,1.9,5.061,7.241,7.241,0,0,0,.287,2.838,31.131,31.131,0,0,1,1.388,5.109,7.67,7.67,0,0,0,2.173,4.258,2.614,2.614,0,0,0,4.084-.376m-11.75-43.92a14.215,14.215,0,0,1-1.614,2.044c-.356-.25-.676-.362-.806-.585a9.527,9.527,0,0,0-2.2-2.644c-.335-.275-.341-.942-.528-1.527a3.867,3.867,0,0,0,2.973-2.52c.9-2.23,1.407-2.46,4.431-2.173-2.222,1.5-2.206,3.29-1.729,5.3a3.4,3.4,0,0,1-.528,2.109" transform="translate(-388.391 -46.869)"/><path class="a" d="M807.251,112.521a1.766,1.766,0,0,0-1.415,2.264,2.14,2.14,0,0,0,2.432,1.977,6.963,6.963,0,0,1,3.191.712c1.572.6,2.774,2.07,4.738,1.832a4.67,4.67,0,0,1-.277.857,8.879,8.879,0,0,0-1.132,4.349,4.714,4.714,0,0,1-.742,2.089,3.23,3.23,0,0,0-.4,2.614,9.431,9.431,0,0,0,.8,2.119,2.218,2.218,0,0,1,.084,2.248,6.04,6.04,0,0,0-.024,5.557,2.1,2.1,0,0,1,.272,1.008c-.112,2.167.063,4.421-.483,6.474a29.893,29.893,0,0,0-.764,8.566,6.26,6.26,0,0,0,1.123,3.718c.787,1.038,1.769.951,2.424-.169a4.018,4.018,0,0,0,.323-.848q.665-2.164,1.307-4.343a14.944,14.944,0,0,0,.612-2.333c.405-3.4.791-6.815,1.1-10.228a10.252,10.252,0,0,1,1.611-5.294,2.635,2.635,0,0,0,.519-1.237,9.749,9.749,0,0,0-.239-4.356,2.1,2.1,0,0,1,.124-1.889,9.267,9.267,0,0,0,.885-5.882c-.117-.936-.1-1.892-.148-2.837l.369-.269a5.955,5.955,0,0,1,1.557.752,6.77,6.77,0,0,0,5.964,1.434,3.551,3.551,0,0,1,2.946.673,6.848,6.848,0,0,0,3.948,1.388c2.049.072,2.831-.631,2.924-2.614.414-.3.852-.561,1.232-.89a1.9,1.9,0,0,0,.163-3.031,4.918,4.918,0,0,0-1.742-1.156,11.946,11.946,0,0,0-2.65-.607,2.261,2.261,0,0,1-1.551-.8,4.113,4.113,0,0,0-3.214-1.449c-.957-.015-1.917,0-2.895,0-1.289-1.774-1.684-1.9-4.083-1.581a5.659,5.659,0,0,1-3.287-.133,18.325,18.325,0,0,1,.737-2.279,26.918,26.918,0,0,0,2.085-6.637,25.233,25.233,0,0,1,2.113-7.232l.09-.29c.263-1.747.314-3.428-1.186-4.748-1.2-1.047-1.222-1.322-.429-2.692.812-1.4,1.7-2.761,2.433-4.2a7.9,7.9,0,0,0,.9-2.689c.187-1.85-1.081-2.909-2.94-2.614a4.312,4.312,0,0,0-3.32,2.8c-.473,1.053-.987,2.089-1.491,3.136-1.292,2.68-2.652,5.327-3.033,8.354a15.816,15.816,0,0,1-.917,3.181,14.608,14.608,0,0,0-1,5.028,7.2,7.2,0,0,1-.77,3.362,6.973,6.973,0,0,0-.582,4.573c.359,1.811-.2,2.454-2.007,2.463a3.973,3.973,0,0,0-2.713.755,3.87,3.87,0,0,1-2.375.851,6.167,6.167,0,0,0-1.2.19" transform="translate(-416.297 -40.181)"/><path class="a" d="M208.919,142.072c-1.808,1.3-2.988,1.313-4.82.033-.54-.377-1.05-.8-1.6-1.159a2.275,2.275,0,0,0-2.94-.054,1.547,1.547,0,0,1-1.832.142,2.841,2.841,0,0,0-3.012.262c-.727.456-1.4,1-2.143,1.428a1.234,1.234,0,0,1-1.98-1.126,2.852,2.852,0,0,1,.232-1.174c.326-.736.712-1.446,1.108-2.146a28.519,28.519,0,0,0,1.527-2.611c.915-2.112.58-3.156-1.264-4.379-.208-.139-.42-.272-.755-.489.262-1.956,1.518-3.106,2.846-4.219,1.781-1.491,3.579-2.964,5.294-4.531.96-.878,1.6-1.976.927-3.347a5.242,5.242,0,0,1,2.955-.824c.86.006,1.721.009,2.581-.024a6.579,6.579,0,0,0,5.4-2.592,2.322,2.322,0,0,0,.35-2.563,2.132,2.132,0,0,0-2.131-1.174c-1.663.072-3.329.1-4.986.245a1.887,1.887,0,0,1-1.892-.567,2.628,2.628,0,0,0-2.321-.878,10.293,10.293,0,0,0-6.1,2.382,3.315,3.315,0,0,0-1.162,1.859,2.908,2.908,0,0,1-2.692,2.749l-.722.223c-3.024.866-4.023,2.094-4.437,5.173a11.282,11.282,0,0,1-.932,3.782,11.388,11.388,0,0,0-1.385,4.895,4.7,4.7,0,0,1-1.292,3,9.241,9.241,0,0,0-1.527,1.875,10.1,10.1,0,0,0-1.054,2.951,1.837,1.837,0,0,0,1.9,2.2c.23.018.459,0,.833,0a9.1,9.1,0,0,0-.815,1.425,11.888,11.888,0,0,0-.74,2.74c-.124,1.449.564,2.125,2.04,2.239.706.058,1.415.025,2.124.04,1.473.036,1.935.522,1.648,1.964a2.914,2.914,0,0,0,1.108,3.232,3,3,0,0,1,1.249,2.729,8.167,8.167,0,0,0,.283,2.095,3.679,3.679,0,0,0,.818,1.406,1.442,1.442,0,0,0,2.158.139,7.647,7.647,0,0,0,1.467-1.892c.576-1.062.96-2.234,1.524-3.3a13.427,13.427,0,0,1,1.581-2.381,1.746,1.746,0,0,1,2.152-.562,3.125,3.125,0,0,0,2.022-.16,6.679,6.679,0,0,0,2.034-1.286,3.843,3.843,0,0,1,3.486-.962,5.6,5.6,0,0,0,6.5-4.666,3.2,3.2,0,0,0-.359-2c-.7-1.179-1.828-1.168-3.262-.136" transform="translate(-92.549 -56.993)"/><path class="a" d="M709.91,133.014a3.535,3.535,0,0,1-.634-4.174,19.413,19.413,0,0,0,1.256-3.081,9.987,9.987,0,0,0-.637-7.645,4.792,4.792,0,0,1-.465-1.729,5.02,5.02,0,0,0-1.5-3.208,15.17,15.17,0,0,0-5.617-3.743,7.636,7.636,0,0,0-8.2,1.454,52.786,52.786,0,0,0-4.018,4.723,6.673,6.673,0,0,1-1.4,1.322c-2.351,1.494-4.183,3.368-4.642,6.242a8.812,8.812,0,0,1-2,4.482,4.849,4.849,0,0,0-.323,5.931,8.878,8.878,0,0,1,1.618,7.023c-.133,1-.2,2.007-.311,3.224a21.453,21.453,0,0,0,.474,3.081,1.982,1.982,0,0,0,2.4,1.584,3.7,3.7,0,0,1,3.085.851,17.7,17.7,0,0,0,2.363,1.279,1.915,1.915,0,0,1,1.077.933,2.881,2.881,0,0,0,3.6,1.775c1.376-.269,2.692-.8,4.141-.525a1.61,1.61,0,0,0,1.02-.235,20.844,20.844,0,0,0,4.329-2.732A56.33,56.33,0,0,0,711.258,143a6.118,6.118,0,0,0,1.316-5.125,12.259,12.259,0,0,0-2.664-4.865m-11.05,5.137a3.9,3.9,0,0,1,.55,3.1c-.933.091-1.914.185-2.786.263-.727-1.129-1.37-2.14-2.025-3.142a2.612,2.612,0,0,0-2.33-1.446c-.8.036-1.072-.435-1.2-1.086-.138-.692-.253-1.392-.395-2.083a4.89,4.89,0,0,1,1.539-4.956,4.767,4.767,0,0,0,1.705-4.718c-.26-1.545.833-2.466,2.145-3.109-.226.972-.474,1.941-.664,2.919a4.176,4.176,0,0,0,2.037,4.533c.377.256.791.453,1.165.712a1.71,1.71,0,0,1,.791,2.339c-.172.525-.419,1.029-.631,1.545a6,6,0,0,0,.1,5.131" transform="translate(-351.762 -56.238)"/><path class="a" d="M156.753,124.023a14.082,14.082,0,0,1,.942-5.49,4.907,4.907,0,0,0,.124-3.99,6.846,6.846,0,0,1-.585-4.406v-.607a1.737,1.737,0,0,0-1.8-1.838,4.349,4.349,0,0,0-2.879.733,1.9,1.9,0,0,1-1.065.383c-1.838-.112-2.523.4-2.291,2.17a11.194,11.194,0,0,1-.652,5.5,6.076,6.076,0,0,0-.2.887,1.973,1.973,0,0,0,1.065,2.536,1.376,1.376,0,0,1,.773,1.648,10.025,10.025,0,0,1-.622,1.85c-.41,1.032-.917,2.028-1.27,3.075a3.692,3.692,0,0,0,1.153,4.5,2.106,2.106,0,0,1,.887,1.835c-.066,1.51-.07,3.028-.277,4.518a5.072,5.072,0,0,0,.124,2.97,3.927,3.927,0,0,1,.269,2.659,3.72,3.72,0,0,0,.592,3.027,4.517,4.517,0,0,1,.733,2.734c-.018.909,0,1.82,0,2.731h-.042c0,1.062-.033,2.127.009,3.19a5.061,5.061,0,0,0,1.267,3.48,1.784,1.784,0,0,0,3.046-.3,2.834,2.834,0,0,0,.443-1.12,19.665,19.665,0,0,0,.254-3.609,14.694,14.694,0,0,1,1.482-8.24,10.942,10.942,0,0,0,.489-1.431,6.573,6.573,0,0,0-.459-5.7l-.142-.269a2.725,2.725,0,0,1,.127-2.879c.486-.767.851-1.615,1.361-2.367a3.429,3.429,0,0,0-1.259-5.191,3.139,3.139,0,0,1-1.6-2.994" transform="translate(-76.46 -55.628)"/><path class="a" d="M150.361,78.316a3.949,3.949,0,0,0,3.978.8,3.493,3.493,0,0,0,2.279-3.3,36.951,36.951,0,0,1,.947-6.124c.534-2.179-.794-3.529-3.226-3.19.13-.73.262-1.309.329-1.9.212-1.744-1.075-3.368-2.6-3.193A4.709,4.709,0,0,0,148.99,62.9a3.193,3.193,0,0,0-.489,3.782,2.4,2.4,0,0,1-.036,2.795,16.91,16.91,0,0,0-1.352,3.036,3.526,3.526,0,0,0,.939,3.891c.746.666,1.536,1.284,2.309,1.915" transform="translate(-75.893 -31.724)"/><path class="a" d="M865.268,262.631v.29h-.836V265.1h-.338v-2.179h-.837v-.29" transform="translate(-445.992 -135.685)"/><path class="a" d="M867.892,262.631h.477l.715,2.086.71-2.086h.474V265.1h-.314v-1.445l0-.266v-.372l-.709,2.083h-.33l-.727-2.083v.073l.018.277V265.1h-.317" transform="translate(-448.386 -135.685)"/></g></svg>